<svg id="Layer_1" data-name="Layer 1" xmlns="http://www.w3.org/2000/svg" viewBox="0 0 512 512"><title>hand-wrench-glyph</title><g id="_Group_" data-name="&lt;Group&gt;"><path id="_Path_" data-name="&lt;Path&gt;" d="M154.8,341.66a44.21,44.21,0,0,1,22.46-12.15A44.5,44.5,0,0,1,211.77,295a44.65,44.65,0,0,1,34.54-34.54,43.92,43.92,0,0,1,2.76-8.43,48.28,48.28,0,0,1-8.19-6.44,47.56,47.56,0,0,1-9.68-13.93L40.65,423.33a43.79,43.79,0,0,0,61.93,61.93L169,418.85l-14.2-14.2A44.6,44.6,0,0,1,154.8,341.66Z" fill="#434040"/><path id="_Path_2" data-name="&lt;Path&gt;" d="M499.28,90.12a9.24,9.24,0,0,0-13.09,0l-36.84,36.8a16.52,16.52,0,0,1-23.41,0L399,100a16.5,16.5,0,0,1,0-23.43l36.83-36.82a9.26,9.26,0,0,0,0-13.1,43.37,43.37,0,0,0-55.69-4.77L360.08,36A76,76,0,0,0,328,94.06l-2.36,44.27L306.1,157.89a92.61,92.61,0,0,1,7.7,18.39l6.52,22.18a47.68,47.68,0,0,1-3.63,35.65,44.82,44.82,0,0,1,4.75,3.9l14.19,14.19,52-52,44.24-2.37a76,76,0,0,0,58.07-32.06l14.15-20A43.36,43.36,0,0,0,499.28,90.12Z" fill="#434040"/><path id="_Path_3" data-name="&lt;Path&gt;" d="M104.65,326h0l133.91-133.9c3.42,4.18,3.21,6.13,9.52,27.55A27.59,27.59,0,1,0,301,204.13L294.5,182a70.35,70.35,0,0,0-67.76-50.79c-3.84,0-61.9,3.85-65.75,4.1l-17.64-17.64-6.81-6.81a44.35,44.35,0,0,0-62.72,0L13,171.66a44.35,44.35,0,0,0,0,62.72Z" fill="#434040"/><path id="_Path_4" data-name="&lt;Path&gt;" d="M307.22,252.25c-23.32-23.32-56.82,12.26-34.53,34.54a24.43,24.43,0,0,0-34.55,34.54,24.43,24.43,0,0,0-34.55,34.55A24.42,24.42,0,0,0,169,390.43l58.15,58.15A24.43,24.43,0,0,0,261.73,414a24.43,24.43,0,0,0,34.55-34.55,24.43,24.43,0,0,0,41.25-21.93c-.89-4.62-4.5-10.67-3.32-9.85a24.4,24.4,0,0,0,31.16-37.31Z" fill="#434040"/></g></svg>