<svg xmlns="http://www.w3.org/2000/svg" enable-background="new 0 0 70 70" viewBox="0 0 70 70"><path d="M12.5087891 26H9.6513672c-.5527344 0-1 .4472656-1 1s.4472656 1 1 1h2.8574219c.5527344 0 1-.4472656 1-1S13.0615234 26 12.5087891 26zM19.3662109 27c0 .5527344.4472656 1 1 1h2.8574219c.5527344 0 1-.4472656 1-1s-.4472656-1-1-1h-2.8574219C19.8134766 26 19.3662109 26.4472656 19.3662109 27z"/><path d="M65,3H23c-1.1025391,0-2,0.8974609-2,2v16H5c-1.1025391,0-2,0.8974609-2,2v42c0,1.1025391,0.8974609,2,2,2h42
	c1.1025391,0,2-0.8974609,2-2V49h16c1.1025391,0,2-0.8974609,2-2V5C67,3.8974609,66.1025391,3,65,3z M47,65H5V33h42V65z M47,31H5v-8
	l16.9960938-0.0007935C21.9974976,22.9992065,21.9985962,23,22,23s0.0025024-0.0007935,0.0039062-0.0007935L47,22.9980469V31z
	 M65,47H49V23c0-1.1025391-0.8974609-2-2-2H23v-6h42V47z M65,13H23V5h42V13z"/><path d="M27.6513672 10h2.8574219c.5527344 0 1-.4472656 1-1s-.4472656-1-1-1h-2.8574219c-.5527344 0-1 .4472656-1 1S27.0986328 10 27.6513672 10zM38.3662109 10h2.8574219c.5527344 0 1-.4472656 1-1s-.4472656-1-1-1h-2.8574219c-.5527344 0-1 .4472656-1 1S37.8134766 10 38.3662109 10zM17.2929688 55.7070312C17.4882812 55.9023438 17.7441406 56 18 56s.5117188-.0976562.7070312-.2929688c.390625-.390625.390625-1.0234375 0-1.4140625L14.4140625 50l4.2929688-4.2929688c.390625-.390625.390625-1.0234375 0-1.4140625s-1.0234375-.390625-1.4140625 0l-5 5c-.390625.390625-.390625 1.0234375 0 1.4140625L17.2929688 55.7070312zM33.2929688 55.7070312C33.4882812 55.9023438 33.7441406 56 34 56s.5117188-.0976562.7070312-.2929688l5-5c.390625-.390625.390625-1.0234375 0-1.4140625l-5-5c-.390625-.390625-1.0234375-.390625-1.4140625 0s-.390625 1.0234375 0 1.4140625L37.5859375 50l-4.2929688 4.2929688C32.9023438 54.6835938 32.9023438 55.3164062 33.2929688 55.7070312zM21.0908203 60.9951172c.1328125.0595703.2714844.0878906.4082031.0878906.3828125 0 .7470703-.2197266.9130859-.5908203l9-20.0830078c.2265625-.5039062.0009766-1.0957031-.5029297-1.3212891-.5048828-.2265625-1.0957031-.0009766-1.3212891.5029297l-9 20.0830078C20.3613281 60.1777344 20.5869141 60.7695312 21.0908203 60.9951172z"/></svg>